<?xml version="1.0" encoding="UTF-8"?>
<svg version="1.1" xmlns="http://www.w3.org/2000/svg" width="74" height="67">
<path d="M0 0 C24.42 0 48.84 0 74 0 C74 22.11 74 44.22 74 67 C49.58 67 25.16 67 0 67 C0 44.89 0 22.78 0 0 Z " fill="#FDFDFD" transform="translate(0,0)"/>
<path d="M0 0 C1.05058594 -0.03738281 2.10117187 -0.07476562 3.18359375 -0.11328125 C10.81623432 -0.20034559 10.81623432 -0.20034559 13.59960938 1.51464844 C14.984375 2.8984375 14.984375 2.8984375 16.75 5.375 C16.42 6.365 16.09 7.355 15.75 8.375 C12.45 8.375 9.15 8.375 5.75 8.375 C5.75 9.035 5.75 9.695 5.75 10.375 C13.15863657 10.56079653 18.43159722 10.29509065 24.1875 5.3125 C25.29931641 4.21228516 25.29931641 4.21228516 26.43359375 3.08984375 C29.39572559 0.89696706 31.14347906 0.9830947 34.75 1.375 C35.41 1.705 36.07 2.035 36.75 2.375 C35.23420565 7.76913712 31.57605145 11.17498342 27.8125 15.125 C27.17892578 15.80949219 26.54535156 16.49398437 25.89257812 17.19921875 C20.21813513 23.22570395 20.21813513 23.22570395 15.08618164 23.53613281 C11.66151578 23.58141243 8.23743987 23.61024528 4.8125 23.625 C3.61947266 23.645625 2.42644531 23.66625 1.19726562 23.6875 C0.05064453 23.69265625 -1.09597656 23.6978125 -2.27734375 23.703125 C-3.85116821 23.71714355 -3.85116821 23.71714355 -5.45678711 23.73144531 C-8.66728785 23.32174939 -10.03610134 22.725551 -12.25 20.375 C-12.7199707 18.30615234 -12.7199707 18.30615234 -12.67578125 15.9609375 C-12.66740234 15.11789063 -12.65902344 14.27484375 -12.65039062 13.40625 C-12.62138672 12.5296875 -12.59238281 11.653125 -12.5625 10.75 C-12.55283203 9.86570312 -12.54316406 8.98140625 -12.53320312 8.0703125 C-12.36430444 -1.5055085 -8.91493044 0.11857828 0 0 Z " fill="#080808" transform="translate(24.25,33.625)"/>
<path d="M0 0 C0.99 0.66 1.98 1.32 3 2 C3.66 1.34 4.32 0.68 5 0 C10.97716895 -0.543379 10.97716895 -0.543379 14 1.0625 C15.65323662 4.26564595 14.8271858 6.56345126 14 10 C12.40580053 12.41776473 10.48573533 14.39949306 8.4375 16.4375 C7.91736328 16.97826172 7.39722656 17.51902344 6.86132812 18.07617188 C5.58734665 19.39690496 4.29543194 20.70029975 3 22 C-9.49699054 11.90627687 -9.49699054 11.90627687 -10.5625 5.75 C-10 3 -10 3 -8.9375 1.125 C-5.92517484 -0.62409203 -3.40497373 -0.30401551 0 0 Z " fill="#060606" transform="translate(42,12)"/>
</svg>
